<svg width="24" height="24" viewBox="0 0 24 24" fill="none" xmlns="http://www.w3.org/2000/svg">
<g clip-path="url(#clip0_keycloak)">
<path fill-rule="evenodd" clip-rule="evenodd" d="M12.0013 2.40002C7.36132 2.40002 3.60132 6.16002 3.60132 10.8C3.60132 15.44 7.36132 19.2 12.0013 19.2C16.6413 19.2 20.4013 15.44 20.4013 10.8C20.4013 6.16002 16.6413 2.40002 12.0013 2.40002Z" fill="#4F46E5"/>
<path d="M12.0013 3.60002C8.02332 3.60002 4.80132 6.82202 4.80132 10.8C4.80132 14.778 8.02332 18 12.0013 18C15.9793 18 19.2013 14.778 19.2013 10.8C19.2013 6.82202 15.9793 3.60002 12.0013 3.60002ZM12.0013 4.80002C15.3193 4.80002 18.0013 7.48202 18.0013 10.8C18.0013 14.118 15.3193 16.8 12.0013 16.8C8.68332 16.8 6.00132 14.118 6.00132 10.8C6.00132 7.48202 8.68332 4.80002 12.0013 4.80002Z" fill="#3B82F6"/>
<path d="M10.2013 8.40002H13.8013V9.60002H10.2013V8.40002Z" fill="white"/>
<path d="M10.2013 10.2H13.8013V11.4H10.2013V10.2Z" fill="white"/>
<path d="M10.2013 12H13.8013V13.2H10.2013V12Z" fill="white"/>
<circle cx="8.40132" cy="9.60002" r="0.6" fill="white"/>
<circle cx="8.40132" cy="10.8" r="0.6" fill="white"/>
<circle cx="8.40132" cy="12" r="0.6" fill="white"/>
</g>
<defs>
<clipPath id="clip0_keycloak">
<rect width="24" height="24" fill="white"/>
</clipPath>
</defs>
</svg>
